<svg xmlns="http://www.w3.org/2000/svg" viewBox="0 0 480 480" role="img" aria-label="UPI QR placeholder">
  <rect width="480" height="480" fill="#fff"/>
  <rect x="24" y="24" width="432" height="432" fill="#f7f8f5" stroke="#17201a" stroke-width="8"/>
  <g fill="#17201a">
    <rect x="60" y="60" width="96" height="96"/>
    <rect x="84" y="84" width="48" height="48" fill="#fff"/>
    <rect x="324" y="60" width="96" height="96"/>
    <rect x="348" y="84" width="48" height="48" fill="#fff"/>
    <rect x="60" y="324" width="96" height="96"/>
    <rect x="84" y="348" width="48" height="48" fill="#fff"/>
    <rect x="204" y="72" width="36" height="36"/>
    <rect x="252" y="72" width="36" height="36"/>
    <rect x="204" y="132" width="84" height="24"/>
    <rect x="192" y="192" width="36" height="36"/>
    <rect x="252" y="192" width="72" height="36"/>
    <rect x="348" y="192" width="36" height="84"/>
    <rect x="84" y="216" width="72" height="36"/>
    <rect x="192" y="264" width="132" height="36"/>
    <rect x="204" y="336" width="36" height="60"/>
    <rect x="276" y="336" width="120" height="36"/>
    <rect x="348" y="396" width="48" height="24"/>
  </g>
  <text x="240" y="238" text-anchor="middle" font-family="Arial, sans-serif" font-size="24" font-weight="700" fill="#256331">UPDATE UPI QR</text>
</svg>
